# xmcd CD database file
#
# Track frame offsets:
#	150
#	20024
#	45569
#	66894
#	104056
#	136490
#	156710
#	173554
#	200573
#	225897
#	245679
#	262220
#	273382
#	308784
#	324316
#
# Disc length: 4598 seconds
#
# Revision: 0
# Processed by: cddbd v1.5.1PL0 Copyright (c) Steve Scherf et al.
# Submitted via: CDex 1.51
#
DISCID=dd11f40f
DTITLE=Various Artist - Clarinets De Profundis
DYEAR=2001
DGENRE=Jazz
TTITLE0=Aube Rouge a Grozny 
TTITLE1=Ashkabad
TTITLE2=Pitta
TTITLE3=Trakitarshna
TTITLE4=The because of
TTITLE5=Seven Phrases
TTITLE6=Complicated
TTITLE7=Awaiting
TTITLE8=Blind Willie McTell
TTITLE9=The Git Go
TTITLE10=The Modzitzer Nigun
TTITLE11=Tremblin Before G_d
TTITLE12=Idalah Abal
TTITLE13=Maskil
TTITLE14=Mahshav
EXTD=YEAR: 2001
EXTT0=
EXTT1=
EXTT2=
EXTT3=
EXTT4=
EXTT5=
EXTT6=
EXTT7=
EXTT8=
EXTT9=
EXTT10=
EXTT11=
EXTT12=
EXTT13=
EXTT14=
PLAYORDER=
